<svg xmlns="http://www.w3.org/2000/svg" xmlns:xlink="http://www.w3.org/1999/xlink" viewBox="0 0 125 37.57"><defs><style>.cls-1{fill:url(#linear-gradient);}.cls-2{fill:#fff;}</style><linearGradient id="linear-gradient" y1="19.89" x2="38.05" y2="19.89" gradientUnits="userSpaceOnUse"><stop offset="0" stop-color="#f5a535"/><stop offset="1" stop-color="#f5e000"/></linearGradient></defs><title>BalticParkMolo_logo_white</title><g id="Warstwa_2" data-name="Warstwa 2"><g id="master_art" data-name="master art"><path class="cls-1" d="M23.93,29.65c.28.56-.31.51-1,.9-1,.56-2.19,1.74-1.58,4.47a4,4,0,0,0,.76,1.61,12.83,12.83,0,0,1,2.32-1.82c2.33-1.39,4.16-1.22,4.57-.5.19.34-.19.19-.58.4a1.49,1.49,0,0,0-.72,1.84,1.75,1.75,0,0,0,.83,1c.15-.06.3-.09.46-.15A19,19,0,1,0,6.77,35.77a32.21,32.21,0,0,1,6.14-4.91C18.54,27.51,23,27.87,23.93,29.65Z"/><path class="cls-2" d="M121.9,16.89a3.1,3.1,0,1,1,3.1-3.1A3.1,3.1,0,0,1,121.9,16.89Zm0-5.75a2.65,2.65,0,1,0,2.61,2.65A2.63,2.63,0,0,0,121.9,11.14Zm.75,4.35-.78-1.39h-.51v1.39h-.47v-3.4H122a1,1,0,0,1,1.08,1,1,1,0,0,1-.73.93l.81,1.45Zm-.66-3h-.63V13.7H122a.6.6,0,0,0,.65-.59A.61.61,0,0,0,122,12.51Z"/><path class="cls-2" d="M8.21,16.52V.2h8a5.12,5.12,0,0,1,3.67,1.19,4.29,4.29,0,0,1,1.25,3.26,3.24,3.24,0,0,1-.57,1.88A3.09,3.09,0,0,1,19.18,7.7a4.94,4.94,0,0,1,1,.5,3,3,0,0,1,.79.79,3.93,3.93,0,0,1,.52,1.13,5,5,0,0,1,.2,1.54,4.49,4.49,0,0,1-1.5,3.55,6.81,6.81,0,0,1-4.6,1.31ZM11.51,3V6.56h4.3c1.38,0,2.07-.58,2.07-1.77a1.63,1.63,0,0,0-.53-1.35A2.83,2.83,0,0,0,15.61,3Zm4.32,10.72a2.51,2.51,0,0,0,1.85-.66,2.27,2.27,0,0,0,.66-1.67,1.84,1.84,0,0,0-.65-1.57,2.93,2.93,0,0,0-1.81-.5H11.51v4.4Z"/><path class="cls-2" d="M29.87,16.52a4.65,4.65,0,0,1-.19-1.08,3.91,3.91,0,0,1-1.5,1,5.64,5.64,0,0,1-2.17.38A4.31,4.31,0,0,1,23,15.92a3.14,3.14,0,0,1-1-2.4,4.34,4.34,0,0,1,.42-2.07,3,3,0,0,1,1.16-1.22,5.4,5.4,0,0,1,1.75-.65c.68-.14,1.42-.27,2.23-.38a4.35,4.35,0,0,0,1.62-.46,1,1,0,0,0,.42-.92A1,1,0,0,0,29,6.9a2.91,2.91,0,0,0-1.49-.34,2.15,2.15,0,0,0-1.59.5,2.29,2.29,0,0,0-.6,1.3h-3a5.53,5.53,0,0,1,.31-1.72,3.21,3.21,0,0,1,.91-1.35,4.27,4.27,0,0,1,1.64-.88,8.63,8.63,0,0,1,2.45-.3,7.69,7.69,0,0,1,2.41.32,3.8,3.8,0,0,1,1.59.92,3.42,3.42,0,0,1,.88,1.5,7.41,7.41,0,0,1,.26,2v7.64Zm-.22-5.92a1.76,1.76,0,0,1-.71.39,11.45,11.45,0,0,1-1.35.32,4.61,4.61,0,0,0-1.9.69,1.47,1.47,0,0,0-.51,1.2c0,.91.51,1.36,1.55,1.36a3,3,0,0,0,1.14-.21A2.8,2.8,0,0,0,29.39,13a2.25,2.25,0,0,0,.24-1Z"/><path class="cls-2" d="M34.13,16.52V0h3.19V16.52Z"/><path class="cls-2" d="M45.44,8.56h3V12a6.14,6.14,0,0,1-.28,1.83,4.36,4.36,0,0,1-.89,1.55,4.13,4.13,0,0,1-1.52,1.07,5.57,5.57,0,0,1-2.19.39,5.86,5.86,0,0,1-2.26-.39,4.15,4.15,0,0,1-1.53-1.06,4,4,0,0,1-.87-1.55A6.36,6.36,0,0,1,38.58,12V1.16h3.17V4.43h3V6.69h-3v5a3.1,3.1,0,0,0,.43,1.78,1.56,1.56,0,0,0,1.4.62A1.63,1.63,0,0,0,45,13.45a2.92,2.92,0,0,0,.45-1.75Z"/><path class="cls-2" d="M49.64,3V0h3.2V3Zm0,13.54V4.43h3.2V16.52Z"/><path class="cls-2" d="M65.08,12.15a5.12,5.12,0,0,1-1.82,3.39,5.57,5.57,0,0,1-1.68,1,6,6,0,0,1-2,.34,6,6,0,0,1-2.25-.4,4.61,4.61,0,0,1-1.76-1.23,5.76,5.76,0,0,1-1.14-2A8.72,8.72,0,0,1,54,10.33a8.41,8.41,0,0,1,.41-2.81,5.1,5.1,0,0,1,1.14-1.93A4.48,4.48,0,0,1,57.3,4.48a6.86,6.86,0,0,1,2.33-.37,6.69,6.69,0,0,1,2.15.32,5,5,0,0,1,1.69.93,4.39,4.39,0,0,1,1.15,1.48,5.13,5.13,0,0,1,.49,1.91H61.89a2.19,2.19,0,0,0-.75-1.46,2.32,2.32,0,0,0-1.54-.53,2.77,2.77,0,0,0-1,.17,1.94,1.94,0,0,0-.77.58,3,3,0,0,0-.53,1.08,6.13,6.13,0,0,0-.2,1.66,5,5,0,0,0,.71,2.95,2.05,2.05,0,0,0,1.65,1,2.53,2.53,0,0,0,1.6-.51,2.07,2.07,0,0,0,.76-1.5Z"/><path class="cls-2" d="M71.9,16.52V.2h7.2a5.51,5.51,0,0,1,2.16.4,4.9,4.9,0,0,1,1.65,1.13A5.2,5.2,0,0,1,84,3.42a5.84,5.84,0,0,1,.37,2.06A5.76,5.76,0,0,1,84,7.54a4.61,4.61,0,0,1-1.06,1.62,5,5,0,0,1-1.65,1.06,5.9,5.9,0,0,1-2.16.38H75.31v5.92Zm6.66-8.7a2.88,2.88,0,0,0,2.13-.68,2.43,2.43,0,0,0,.65-1.76,2.33,2.33,0,0,0-.65-1.69A2.92,2.92,0,0,0,78.56,3H75.31v4.8Z"/><path class="cls-2" d="M92.55,16.52a5.2,5.2,0,0,1-.2-1.08,3.76,3.76,0,0,1-1.5,1,5.55,5.55,0,0,1-2.16.38,4.31,4.31,0,0,1-3.06-.92,3.14,3.14,0,0,1-1-2.4,4.48,4.48,0,0,1,.41-2.07,3.1,3.1,0,0,1,1.16-1.22A5.46,5.46,0,0,1,88,9.58c.68-.14,1.42-.27,2.22-.38a4.35,4.35,0,0,0,1.63-.46,1,1,0,0,0,.42-.92,1,1,0,0,0-.56-.92,2.88,2.88,0,0,0-1.49-.34,2.14,2.14,0,0,0-1.58.5,2.29,2.29,0,0,0-.6,1.3h-3a5.53,5.53,0,0,1,.31-1.72,3.21,3.21,0,0,1,.91-1.35,4.3,4.3,0,0,1,1.63-.88,8.68,8.68,0,0,1,2.45-.3,7.75,7.75,0,0,1,2.42.32,3.86,3.86,0,0,1,1.59.92,3.5,3.5,0,0,1,.87,1.5,7,7,0,0,1,.27,2v7.64Zm-.22-5.92a1.83,1.83,0,0,1-.71.39,12.24,12.24,0,0,1-1.36.32,4.5,4.5,0,0,0-1.89.69,1.47,1.47,0,0,0-.52,1.2c0,.91.52,1.36,1.55,1.36a3.13,3.13,0,0,0,1.15-.21,2.92,2.92,0,0,0,.91-.57,2.79,2.79,0,0,0,.61-.83,2.24,2.24,0,0,0,.23-1Z"/><path class="cls-2" d="M96.8,16.52V4.43h3V5.87a3.72,3.72,0,0,1,.83-1,3.38,3.38,0,0,1,.88-.53,3.05,3.05,0,0,1,.92-.24c.32,0,.64,0,1,0h.42v3.3a5.24,5.24,0,0,0-.88-.08A2.59,2.59,0,0,0,100,10.23v6.29Z"/><path class="cls-2" d="M112,16.52l-2.65-5.43-1.55,1.6v3.83h-3.2V0h3.2V9l4-4.59h3.91l-4.06,4.45,4,7.64Z"/><path class="cls-2" d="M12.27,25.31h-.34l-1.54-3.65c-.21-.5-.42-1.05-.64-1.63h0c0,.84.06,1.62.06,2.33v2.95H9V19.2h1.07l1.44,3.46c.16.39.34.87.54,1.43h0c.22-.62.4-1.09.55-1.43l1.43-3.46h1.08v6.11h-.75V22.36c0-.69,0-1.47.07-2.33h0c-.22.62-.44,1.17-.64,1.63Z"/><path class="cls-2" d="M22.17,22.26a3.68,3.68,0,0,1-.2,1.27,2.81,2.81,0,0,1-.57,1,2.44,2.44,0,0,1-.89.66,2.94,2.94,0,0,1-1.17.23,3,3,0,0,1-1.2-.23,2.56,2.56,0,0,1-.9-.66,3,3,0,0,1-.56-1,3.94,3.94,0,0,1-.19-1.27,3.78,3.78,0,0,1,.2-1.28,2.74,2.74,0,0,1,1.46-1.66,3.17,3.17,0,0,1,2.37,0,2.84,2.84,0,0,1,.9.66A3,3,0,0,1,22,21,4,4,0,0,1,22.17,22.26Zm-.74,0a3.23,3.23,0,0,0-.16-1.08,2.23,2.23,0,0,0-.44-.79,1.74,1.74,0,0,0-.67-.47,2.11,2.11,0,0,0-1.66,0,1.78,1.78,0,0,0-.66.47,2.24,2.24,0,0,0-.45.79,3.23,3.23,0,0,0-.16,1.08,3.33,3.33,0,0,0,.16,1.09,2.29,2.29,0,0,0,.45.78,1.74,1.74,0,0,0,.67.47,2.08,2.08,0,0,0,.83.16,2,2,0,0,0,.82-.16,1.74,1.74,0,0,0,.67-.47,2.27,2.27,0,0,0,.44-.78A3.33,3.33,0,0,0,21.43,22.26Z"/><path class="cls-2" d="M24.29,19.2v5.44h3v.67H23.54V19.2Z"/><path class="cls-2" d="M33.5,22.26a3.93,3.93,0,0,1-.2,1.27,2.81,2.81,0,0,1-.57,1,2.62,2.62,0,0,1-.89.66,3,3,0,0,1-1.17.23,3,3,0,0,1-1.2-.23,2.39,2.39,0,0,1-.9-.66,2.79,2.79,0,0,1-.56-1,3.93,3.93,0,0,1-.2-1.27A3.78,3.78,0,0,1,28,21a2.81,2.81,0,0,1,.57-1,2.69,2.69,0,0,1,.89-.66,2.94,2.94,0,0,1,1.17-.23,3,3,0,0,1,1.2.23,2.69,2.69,0,0,1,.89.66,2.79,2.79,0,0,1,.56,1A4,4,0,0,1,33.5,22.26Zm-.74,0a3.51,3.51,0,0,0-.16-1.08,2.24,2.24,0,0,0-.45-.79,1.74,1.74,0,0,0-.67-.47,2.09,2.09,0,0,0-1.65,0,1.74,1.74,0,0,0-.67.47,2.24,2.24,0,0,0-.45.79,3.51,3.51,0,0,0-.16,1.08,3.62,3.62,0,0,0,.16,1.09,2.46,2.46,0,0,0,.45.78,1.74,1.74,0,0,0,.67.47,2.1,2.1,0,0,0,.84.16,2,2,0,0,0,.82-.16,1.78,1.78,0,0,0,.66-.47,2.29,2.29,0,0,0,.45-.78A3.62,3.62,0,0,0,32.76,22.26Z"/></g></g></svg>